<?xml version="1.0" standalone="no"?>
<!DOCTYPE svg PUBLIC "-//W3C//DTD SVG 20010904//EN"
 "http://www.w3.org/TR/2001/REC-SVG-20010904/DTD/svg10.dtd">
<svg version="1.0" xmlns="http://www.w3.org/2000/svg"
 width="300.000000pt" height="300.000000pt" viewBox="0 0 300.000000 300.000000"
 preserveAspectRatio="xMidYMid meet">
<metadata>
Created by potrace 1.11, written by Peter Selinger 2001-2013
</metadata>
<g transform="translate(0.000000,300.000000) scale(0.100000,-0.100000)"
fill="#000000" stroke="none">
<path d="M1485 2883 c-5 -15 -9 -30 -10 -33 0 -3 -39 -120 -85 -260 -46 -140
-85 -257 -85 -260 -2 -11 -97 -307 -108 -335 -7 -16 -12 -32 -12 -35 -1 -3 -9
-29 -19 -57 l-18 -53 -556 -2 -556 -3 138 -100 c76 -55 186 -135 244 -178 112
-80 259 -188 423 -307 l97 -69 -39 -113 c-21 -62 -38 -113 -38 -113 0 0 -2 -7
-5 -15 -3 -8 -19 -58 -35 -110 -16 -52 -41 -129 -55 -170 -15 -41 -28 -82 -30
-91 -2 -8 -30 -94 -61 -190 -32 -95 -57 -175 -57 -176 1 -2 -5 -18 -14 -38 -8
-19 -10 -35 -6 -35 5 0 48 28 94 62 47 35 120 88 162 118 42 30 85 61 94 67 9
7 58 42 107 78 111 80 242 176 315 229 76 56 120 86 126 86 6 0 125 -81 134
-91 3 -3 37 -27 75 -54 39 -27 73 -54 77 -60 4 -5 8 -6 8 -2 0 5 7 1 16 -7 8
-9 37 -30 62 -48 26 -17 49 -34 52 -38 3 -3 34 -26 70 -51 36 -24 67 -46 70
-49 3 -3 37 -28 75 -55 39 -27 75 -53 80 -57 6 -5 43 -32 84 -61 40 -29 81
-58 91 -65 18 -13 18 -12 9 15 -17 48 -191 577 -193 588 -1 6 -35 108 -75 229
-39 120 -71 219 -69 220 2 2 35 25 73 51 39 27 72 52 75 55 3 3 52 39 110 80
58 41 112 80 120 87 19 16 352 257 448 326 l74 52 -559 3 -558 2 -44 138 c-25
75 -45 139 -46 142 -1 3 -36 111 -79 240 -43 129 -80 242 -82 250 -2 8 -11 35
-20 60 -9 25 -18 52 -20 60 -5 23 -55 164 -59 168 -1 2 -6 -10 -10 -25z"/>
</g>
</svg>
